<?xml version="1.0" encoding="iso-8859-1"?>
<!-- Uploaded to: SVG Repo, www.svgrepo.com, Generator: SVG Repo Mixer Tools -->
<svg fill="#000000" height="800px" width="800px" version="1.1" id="Layer_1" xmlns="http://www.w3.org/2000/svg" xmlns:xlink="http://www.w3.org/1999/xlink" 
	 viewBox="0 0 502 502" xml:space="preserve">
<g>
	<g>
		<g>
			<path d="M497,0H5C2.239,0,0,2.239,0,5v492c0,2.761,2.239,5,5,5h492c2.761,0,5-2.239,5-5V5C502,2.239,499.761,0,497,0z M492,492
				H10V10h482V492z"/>
			<path d="M78.948,433.244c0.831,0,1.668-0.104,2.493-0.316l84.447-21.741c26.155,13.907,55.568,21.239,85.334,21.239
				c100.262,0,181.831-81.569,181.831-181.831c0-100.266-81.569-181.838-181.832-181.838c-100.262,0-181.831,81.572-181.831,181.837
				c0,31,7.903,61.462,22.89,88.38l-22.958,81.56c-0.969,3.444-0.025,7.143,2.476,9.701
				C73.703,432.184,76.292,433.244,78.948,433.244z M103.042,337.646C87.545,311.32,79.39,281.363,79.39,250.594
				c0-94.752,77.083-171.837,171.831-171.837s171.831,77.085,171.831,171.837c0,94.748-77.083,171.831-171.831,171.831
				c-29.525,0-58.434-7.558-84.005-21.907l-88.269,22.725L103.042,337.646z"/>
			<path d="M388.095,291.261c-2.615-0.882-5.452,0.526-6.333,3.144c-3.897,11.58-9.346,22.618-16.195,32.805
				c-1.54,2.292-0.932,5.398,1.36,6.939c0.856,0.576,1.826,0.851,2.785,0.851c1.609,0,3.188-0.775,4.153-2.211
				c7.347-10.927,13.192-22.769,17.374-35.195C392.12,294.977,390.712,292.142,388.095,291.261z"/>
			<path d="M174.379,376.736c23.084,14.091,49.656,21.539,76.842,21.539c32.776,0,63.837-10.556,89.825-30.528
				c2.189-1.682,2.6-4.822,0.918-7.011c-1.683-2.19-4.823-2.6-7.011-0.918c-24.227,18.617-53.181,28.457-83.733,28.457
				c-25.347,0-50.117-6.942-71.63-20.073l-5.255-3.21c-1.155-0.706-2.545-0.912-3.853-0.576l-42.587,10.96l11.525-40.931
				c0.388-1.377,0.167-2.854-0.606-4.058l-3.542-5.513c-14.22-22.144-21.737-47.83-21.737-74.282
				c0-75.92,61.766-137.686,137.686-137.686s137.686,61.766,137.686,137.686c0,2.761,2.239,5,5,5s5-2.239,5-5
				c0-81.435-66.251-147.686-147.686-147.686s-147.686,66.252-147.686,147.686c0,28.372,8.065,55.926,23.323,79.686l2.327,3.622
				l-13.27,47.128c-0.485,1.722-0.012,3.572,1.238,4.851c1.25,1.28,3.091,1.792,4.821,1.347l48.953-12.599L174.379,376.736z"/>
			<path d="M337.577,283.446l-37.678-17.369c-4.594-2.119-9.96-0.8-13.048,3.206l-14.458,18.745
				c-10.133-3.646-41.655-17.296-59.162-50.625l13.801-15.969c2.677-3.094,3.366-7.524,1.756-11.282l-16.241-38.001
				c-1.602-3.747-5.26-6.309-9.321-6.528l-11.152-0.611c-4.822-0.258-9.494,1.334-13.134,4.496
				c-5.549,4.82-15.307,14.903-18.305,28.278c-4.342,19.346,2.348,42.383,18.838,64.869c10.165,13.859,41.096,56.032,100.193,72.744
				c5.834,1.65,11.481,2.473,16.923,2.473c9.831,0,18.994-2.687,27.378-8.051c9.051-5.789,15.562-15.271,17.863-26.019l1.774-8.305
				C344.672,290.53,342.194,285.575,337.577,283.446z M333.827,293.403l-1.775,8.31c-1.745,8.151-6.656,15.327-13.472,19.686
				c-10.511,6.723-22.689,8.195-36.192,4.377c-55.788-15.776-85.189-55.863-94.85-69.035c-14.757-20.121-20.845-40.28-17.145-56.766
				c2.373-10.585,10.482-18.902,15.105-22.917c1.55-1.346,3.509-2.073,5.559-2.073l11.623,0.625c0.003,0,0.006,0,0.009,0
				c0.287,0.015,0.548,0.201,0.664,0.472l16.242,38.005c0.117,0.273,0.069,0.581-0.126,0.807l-14.129,16.348
				c-2.506,2.885-2.975,6.952-1.201,10.353c19.461,37.49,55.025,52.383,65.463,56.055c3.765,1.323,7.935,0.085,10.376-3.081
				l14.793-19.179c0.223-0.289,0.609-0.382,0.942-0.23l37.678,17.369C333.725,292.684,333.905,293.04,333.827,293.403z"/>
			<path d="M413,47h43c2.761,0,5-2.239,5-5s-2.239-5-5-5h-43c-2.761,0-5,2.239-5,5S410.239,47,413,47z"/>
			<path d="M360,47h14c2.761,0,5-2.239,5-5s-2.239-5-5-5h-14c-2.761,0-5,2.239-5,5S357.239,47,360,47z"/>
		</g>
	</g>
</g>
</svg>